<?xml version="1.0" ?><svg viewBox="2774 1390 120 120" xmlns="http://www.w3.org/2000/svg"><defs><style>
      .cls-1 {
        fill: #202328;
      }

      .cls-2 {
        fill: #fff;
      }
    </style></defs><g data-name="Group 98" id="Group_98" transform="translate(2740 1040)"><circle class="cls-1" cx="60" cy="60" data-name="Ellipse 73" id="Ellipse_73" r="60" transform="translate(34 350)"/><g data-name="Group 97" id="Group_97" transform="translate(-155.837 5.281)"><path class="cls-2" d="M1.1-.025l36.846-.67C38.915-.716,39.6-.779,41.1.99s22.874,28.3,22.874,28.3C63.95,30.3,63.5,30.479,62.1,30.679l-36.252.426a3.57,3.57,0,0,1-2.9-1.354L.128,1.355C-.249.431.128,0,1.1-.025Z" data-name="Path 209" id="Path_209" transform="translate(214.147 384.39) rotate(-25)"/><path class="cls-2" d="M1.1-.025,8.523.028A4.028,4.028,0,0,1,10.18.373a6.491,6.491,0,0,1,1.578,1.164L27.12,20.788a4.518,4.518,0,0,0,1.538,1.466,5.8,5.8,0,0,0,2.195.275L55.64,22a6.991,6.991,0,0,1,2.321.654A4.656,4.656,0,0,1,59.5,24.119l4.246,5.4c-.022,1.007-.244.956-1.65,1.156l-36.252.426a3.57,3.57,0,0,1-2.9-1.354L.128,1.355C-.249.431.128,0,1.1-.025Z" data-name="Path 210" id="Path_210" transform="translate(214.147 404.751) rotate(-25)"/><path class="cls-2" d="M1.1-.025,8.523.028A4.028,4.028,0,0,1,10.18.373a6.491,6.491,0,0,1,1.578,1.164L27.12,20.788a4.518,4.518,0,0,0,1.538,1.466,5.8,5.8,0,0,0,2.195.275L55.64,22a6.991,6.991,0,0,1,2.321.654A4.656,4.656,0,0,1,59.5,24.119l4.246,5.4c-.022,1.007-.244.956-1.65,1.156l-36.252.426a3.57,3.57,0,0,1-2.9-1.354L.128,1.355C-.249.431.128,0,1.1-.025Z" data-name="Path 211" id="Path_211" transform="translate(214.147 425.111) rotate(-25)"/></g></g></svg>